<svg xmlns="http://www.w3.org/2000/svg" viewBox="0 0 900 260"><rect width="900" height="260" rx="28" fill="#22080C"/><circle cx="450" cy="130" r="78" fill="none" stroke="#D6A441" stroke-width="9"/><circle cx="450" cy="130" r="47" fill="none" stroke="#F2C45C" stroke-width="7"/><circle cx="450" cy="130" r="16" fill="#F2C45C"/><path d="M450 30 V70M450 190 V230M350 130 H390M510 130 H550" stroke="#D8C8BD" stroke-width="5" stroke-linecap="round"/><path d="M120 82h155a14 14 0 0 1 14 14v68a14 14 0 0 1-14 14H120a14 14 0 0 1-14-14V96a14 14 0 0 1 14-14Z" fill="#351116" stroke="#D6A441" stroke-width="3"/><path d="M135 108h85M135 130h120M135 152h68" stroke="#D8C8BD" stroke-width="5" stroke-linecap="round"/><path d="M625 88l45 35 65-68" fill="none" stroke="#55B98A" stroke-width="9" stroke-linecap="round" stroke-linejoin="round"/><text x="55" y="52" fill="#F2C45C" font-family="Georgia" font-size="28">RETRIEVE · DECIDE · IMPROVE</text></svg>